# xmcd CD database file
# Copyright (C) 1996 Ti Kan
#
# Track frame offsets:
#  150
#  12503
#  22465
#  35143
#  45265
#  57198
#  68608
#  76928
#  88708
#  96860
#  110593
#  122890
#  134745
#  148308
#  165895
#  176540
#  195218
#  207758
#  224905
#  237948
#  249813
#  268428
#  286623
#  303720
#  319860
#
# Disc length: 4396 seconds
#
# Revision: 1
# Processed by: cddbd v1.4b41PL1 Copyright (c) Steve Scherf et al.
# Submitted via: CDWizzard Release:4.10
#
DISCID=74112a19
DTITLE=Johnny Cash - Johnny Cash: Legendary Country Singer
DYEAR=1900
DGENRE=
TTITLE0=I Walk the Line
TTITLE1=Hey Porter
TTITLE2=Folsom Prison Blues
TTITLE3=Get Rhythm
TTITLE4=Home of the Blues
TTITLE5=Big River
TTITLE6=Guess Things Happen That Way
TTITLE7=I Still Miss Someone
TTITLE8=Five Feet High and Rising
TTITLE9=Don't Take Your Guns to Town
TTITLE10=Understand Your Man
TTITLE11=Ring of Fire
TTITLE12=Tennessee Flat-Top Box
TTITLE13=Were You There (When They Crucified My Lord)
TTITLE14=Daddy Sang Bass
TTITLE15=The Ballad of Ira Hayes
TTITLE16=Jackson
TTITLE17=A Boy Named Sue
TTITLE18=Man in Black
TTITLE19=Flesh and Blood
TTITLE20=Sunday Morning Coming Down
TTITLE21=One Piece at a Time
TTITLE22=(Ghost) Riders in the Sky
TTITLE23=Johnny 99
TTITLE24=Luther Played the Boogie
EXTD=
EXTT0=Johnny Cash
EXTT1=Johnny Cash
EXTT2=Johnny Cash
EXTT3=Johnny Cash
EXTT4=Johnny Cash
EXTT5=Johnny Cash
EXTT6=Johnny Cash
EXTT7=Johnny Cash
EXTT8=Johnny Cash
EXTT9=Johnny Cash
EXTT10=Johnny Cash
EXTT11=Johnny Cash
EXTT12=Johnny Cash
EXTT13=Johnny Cash with the Carter Family
EXTT14=Johnny Cash
EXTT15=Johnny Cash
EXTT16=Johnny Cash with June Carter
EXTT17=Johnny Cash
EXTT18=Johnny Cash
EXTT19=Johnny Cash
EXTT20=
EXTT21=Johnny Cash
EXTT22=Johnny Cash
EXTT23=Johnny Cash
EXTT24=Johnny Cash
PLAYORDER=
